<svg width="900" height="620" xmlns="http://www.w3.org/2000/svg">
  <defs>
    <linearGradient id="bgMulti" x1="0%" y1="0%" x2="100%" y2="100%">
      <stop offset="0%" style="stop-color:#1a1a2e;stop-opacity:1" />
      <stop offset="100%" style="stop-color:#16213e;stop-opacity:1" />
    </linearGradient>
    <linearGradient id="accentMulti" x1="0%" y1="0%" x2="100%" y2="0%">
      <stop offset="0%" style="stop-color:#e94560;stop-opacity:1" />
      <stop offset="100%" style="stop-color:#ff6b6b;stop-opacity:1" />
    </linearGradient>
    <linearGradient id="purple" x1="0%" y1="0%" x2="100%" y2="0%">
      <stop offset="0%" style="stop-color:#8b5cf6;stop-opacity:1" />
      <stop offset="100%" style="stop-color:#a78bfa;stop-opacity:1" />
    </linearGradient>
    <linearGradient id="cyan" x1="0%" y1="0%" x2="100%" y2="0%">
      <stop offset="0%" style="stop-color:#06b6d4;stop-opacity:1" />
      <stop offset="100%" style="stop-color:#22d3ee;stop-opacity:1" />
    </linearGradient>
    <linearGradient id="amber" x1="0%" y1="0%" x2="100%" y2="0%">
      <stop offset="0%" style="stop-color:#f59e0b;stop-opacity:1" />
      <stop offset="100%" style="stop-color:#fbbf24;stop-opacity:1" />
    </linearGradient>
  </defs>
  
  <!-- Background -->
  <rect width="900" height="620" fill="url(#bgMulti)"/>
  
  <!-- Sidebar -->
  <rect x="0" y="0" width="220" height="620" fill="#0f0f23"/>
  <text x="20" y="40" font-family="Arial, sans-serif" font-size="18" fill="#e94560">🏷️</text>
  <text x="45" y="40" font-family="Arial, sans-serif" font-size="12" font-weight="bold" fill="#e94560">Labelling Programs</text>
  
  <text x="20" y="75" font-family="Arial, sans-serif" font-size="9" font-weight="bold" fill="#e94560">CLIP 이미지 분류기</text>
  
  <rect x="12" y="85" width="196" height="38" rx="8" fill="transparent"/>
  <text x="28" y="109" font-family="Arial, sans-serif" font-size="12" fill="#64748b">📊 단일 이미지 분석</text>
  
  <rect x="12" y="130" width="196" height="38" rx="8" fill="url(#accentMulti)"/>
  <text x="28" y="154" font-family="Arial, sans-serif" font-size="12" fill="white">📁 다중 이미지 분류</text>
  
  <text x="20" y="195" font-family="Arial, sans-serif" font-size="9" font-weight="bold" fill="#e94560">Coming Soon</text>
  <text x="28" y="220" font-family="Arial, sans-serif" font-size="11" fill="#555">🔲 바운딩 박스 라벨러</text>
  <text x="28" y="250" font-family="Arial, sans-serif" font-size="11" fill="#555">🎨 세그멘테이션 도구</text>
  
  <!-- Header -->
  <rect x="220" y="0" width="680" height="55" fill="#0f0f23"/>
  <text x="240" y="33" font-family="Arial, sans-serif" font-size="16" font-weight="bold" fill="#e94560">🏷️ Labelling Programs</text>
  <text x="430" y="33" font-family="Arial, sans-serif" font-size="10" fill="#64748b">다중 기준 이미지 분류</text>
  <text x="750" y="33" font-family="Arial, sans-serif" font-size="10" fill="#4ade80">● 분석 완료</text>
  
  <!-- Reference Images Section -->
  <rect x="240" y="70" width="640" height="125" rx="12" fill="#2a2a4a" stroke="#444" stroke-width="1"/>
  <text x="260" y="93" font-family="Arial, sans-serif" font-size="12" font-weight="bold" fill="#e94560">🎯 기준 이미지 (3개) - 개별 임계치 설정</text>
  
  <!-- Ref 1 - Cat -->
  <rect x="260" y="105" width="185" height="72" rx="8" fill="#1e1e3f" stroke="#8b5cf6" stroke-width="2"/>
  <rect x="272" y="115" width="40" height="40" rx="6" fill="url(#purple)"/>
  <text x="292" y="142" font-family="Arial, sans-serif" font-size="20" fill="white" text-anchor="middle">🐱</text>
  <text x="325" y="132" font-family="Arial, sans-serif" font-size="10" font-weight="bold" fill="#a78bfa">cat_ref.jpg</text>
  <text x="325" y="147" font-family="monospace" font-size="8" fill="#64748b">→ /sorted/cats/</text>
  <text x="325" y="162" font-family="monospace" font-size="9" fill="#a78bfa" font-weight="bold">임계치: 65%</text>
  
  <!-- Ref 2 - Dog -->
  <rect x="460" y="105" width="185" height="72" rx="8" fill="#1e1e3f" stroke="#06b6d4" stroke-width="2"/>
  <rect x="472" y="115" width="40" height="40" rx="6" fill="url(#cyan)"/>
  <text x="492" y="142" font-family="Arial, sans-serif" font-size="20" fill="white" text-anchor="middle">🐕</text>
  <text x="525" y="132" font-family="Arial, sans-serif" font-size="10" font-weight="bold" fill="#22d3ee">dog_ref.jpg</text>
  <text x="525" y="147" font-family="monospace" font-size="8" fill="#64748b">→ /sorted/dogs/</text>
  <text x="525" y="162" font-family="monospace" font-size="9" fill="#22d3ee" font-weight="bold">임계치: 70%</text>
  
  <!-- Ref 3 - Bird -->
  <rect x="660" y="105" width="185" height="72" rx="8" fill="#1e1e3f" stroke="#f59e0b" stroke-width="2"/>
  <rect x="672" y="115" width="40" height="40" rx="6" fill="url(#amber)"/>
  <text x="692" y="142" font-family="Arial, sans-serif" font-size="20" fill="white" text-anchor="middle">🐦</text>
  <text x="725" y="132" font-family="Arial, sans-serif" font-size="10" font-weight="bold" fill="#fbbf24">bird_ref.jpg</text>
  <text x="725" y="147" font-family="monospace" font-size="8" fill="#64748b">→ /sorted/birds/</text>
  <text x="725" y="162" font-family="monospace" font-size="9" fill="#fbbf24" font-weight="bold">임계치: 75%</text>
  
  <!-- Results Section -->
  <rect x="240" y="210" width="640" height="390" rx="12" fill="#2a2a4a" stroke="#444" stroke-width="1"/>
  <text x="260" y="238" font-family="Arial, sans-serif" font-size="13" font-weight="bold" fill="white">📊 다중 분석 결과</text>
  
  <!-- Badges -->
  <rect x="520" y="222" width="75" height="24" rx="6" fill="rgba(96, 165, 250, 0.15)"/>
  <text x="532" y="238" font-family="Arial, sans-serif" font-size="9" fill="#60a5fa">총 <tspan font-weight="bold">7,860</tspan>개</text>
  
  <rect x="605" y="222" width="95" height="24" rx="6" fill="rgba(74, 222, 128, 0.15)"/>
  <text x="614" y="238" font-family="Arial, sans-serif" font-size="9" fill="#4ade80">임계치 이상 <tspan font-weight="bold">5,247</tspan>개</text>
  
  <!-- Category Tabs -->
  <rect x="260" y="255" width="115" height="28" rx="6" fill="url(#accentMulti)"/>
  <text x="317" y="274" font-family="Arial, sans-serif" font-size="10" fill="white" text-anchor="middle">전체 (최고 유사도)</text>
  
  <rect x="385" y="255" width="80" height="28" rx="6" fill="#1e1e3f" stroke="#8b5cf6" stroke-width="1"/>
  <text x="425" y="274" font-family="Arial, sans-serif" font-size="10" fill="#a78bfa" text-anchor="middle">#1 🐱 65%</text>
  
  <rect x="475" y="255" width="80" height="28" rx="6" fill="#1e1e3f" stroke="#06b6d4" stroke-width="1"/>
  <text x="515" y="274" font-family="Arial, sans-serif" font-size="10" fill="#22d3ee" text-anchor="middle">#2 🐕 70%</text>
  
  <rect x="565" y="255" width="80" height="28" rx="6" fill="#1e1e3f" stroke="#f59e0b" stroke-width="1"/>
  <text x="605" y="274" font-family="Arial, sans-serif" font-size="10" fill="#fbbf24" text-anchor="middle">#3 🐦 75%</text>
  
  <!-- Category Stats -->
  <rect x="260" y="295" width="190" height="90" rx="8" fill="#1e1e3f" stroke="#8b5cf6" stroke-width="2"/>
  <text x="280" y="318" font-family="Arial, sans-serif" font-size="11" fill="#a78bfa">🐱 고양이</text>
  <text x="280" y="348" font-family="monospace" font-size="24" font-weight="bold" fill="#a78bfa">2,847</text>
  <text x="280" y="372" font-family="Arial, sans-serif" font-size="8" fill="#64748b">평균: 78.5% | 최고: 96.2%</text>
  
  <rect x="465" y="295" width="190" height="90" rx="8" fill="#1e1e3f" stroke="#06b6d4" stroke-width="2"/>
  <text x="485" y="318" font-family="Arial, sans-serif" font-size="11" fill="#22d3ee">🐕 강아지</text>
  <text x="485" y="348" font-family="monospace" font-size="24" font-weight="bold" fill="#22d3ee">1,592</text>
  <text x="485" y="372" font-family="Arial, sans-serif" font-size="8" fill="#64748b">평균: 75.2% | 최고: 94.8%</text>
  
  <rect x="670" y="295" width="175" height="90" rx="8" fill="#1e1e3f" stroke="#f59e0b" stroke-width="2"/>
  <text x="690" y="318" font-family="Arial, sans-serif" font-size="11" fill="#fbbf24">🐦 새</text>
  <text x="690" y="348" font-family="monospace" font-size="24" font-weight="bold" fill="#fbbf24">808</text>
  <text x="690" y="372" font-family="Arial, sans-serif" font-size="8" fill="#64748b">평균: 72.1% | 최고: 91.3%</text>
  
  <!-- Progress/Status Bar -->
  <rect x="260" y="400" width="585" height="32" rx="8" fill="#4ade80"/>
  <text x="552" y="421" font-family="Arial, sans-serif" font-size="11" font-weight="bold" fill="white" text-anchor="middle">✅ 분류 완료 - 5,247개 이미지 처리됨 (중복 없음)</text>
  
  <!-- Action Buttons -->
  <rect x="260" y="445" width="140" height="38" rx="8" fill="url(#accentMulti)"/>
  <text x="330" y="469" font-family="Arial, sans-serif" font-size="12" font-weight="bold" fill="white" text-anchor="middle">📁 분류 실행</text>
  
  <rect x="415" y="445" width="140" height="38" rx="8" fill="#1e1e3f" stroke="#444" stroke-width="1"/>
  <text x="485" y="469" font-family="Arial, sans-serif" font-size="12" fill="#64748b" text-anchor="middle">📥 CSV 내보내기</text>
  
  <rect x="570" y="445" width="140" height="38" rx="8" fill="#1e1e3f" stroke="#444" stroke-width="1"/>
  <text x="640" y="469" font-family="Arial, sans-serif" font-size="12" fill="#64748b" text-anchor="middle">🔄 다시 분석</text>
  
  <!-- Info Note -->
  <rect x="260" y="495" width="585" height="50" rx="8" fill="rgba(96, 165, 250, 0.1)" stroke="rgba(96, 165, 250, 0.3)" stroke-width="1"/>
  <text x="280" y="515" font-family="Arial, sans-serif" font-size="10" fill="#60a5fa">💡 각 기준 이미지별 개별 임계치 적용</text>
  <text x="280" y="533" font-family="Arial, sans-serif" font-size="9" fill="#64748b">이미지당 가장 유사도 높은 1개 폴더로만 분류됩니다. (중복 분류 없음)</text>
  
  <!-- Footer -->
  <text x="560" y="580" font-family="Arial, sans-serif" font-size="9" fill="#555" text-anchor="middle">Powered by OpenAI CLIP • Built with ❤️</text>
</svg>
